REM GENRE Techno
REM DATE 1997
REM DISCID 1204F403
REM COMMENT "ExactAudioCopy v0.95b3"
PERFORMER "Juno Reactor"
TITLE "Jungle High (CD Single)"
FILE "01 - Jungle High (Oakenfold Edit).wav" WAVE
  TRACK 01 AUDIO
    TITLE "Jungle High (Oakenfold Edit)"
    PERFORMER "Juno Reactor"
    PREGAP 00:00:32
    INDEX 01 00:00:00
  TRACK 02 AUDIO
    TITLE "Jungle High (Our House Remix)"
    PERFORMER "Juno Reactor"
    INDEX 00 03:20:50
FILE "02 - Jungle High (Our House Remix).wav" WAVE
    INDEX 01 00:00:00
  TRACK 03 AUDIO
    TITLE "Original Mix"
    PERFORMER "Juno Reactor"
    INDEX 00 08:38:25
FILE "03 - Original Mix.wav" WAVE
    INDEX 01 00:00:00
